 <svg  version="1.0" xmlns="http://www.w3.org/2000/svg"  width="300.000000pt" height="375.000000pt" viewBox="0 0 300.000000 375.000000"  preserveAspectRatio="xMidYMid meet">  <g transform="translate(0.000000,375.000000) scale(0.100000,-0.100000)" fill="#f9de0e" stroke="none"> <path d="M1108 2682 c-21 -2 -38 -8 -38 -13 0 -6 5 -7 10 -4 13 8 13 -1 0 -26 -8 -15 -7 -19 5 -19 9 0 15 9 15 26 0 20 4 24 19 19 11 -3 22 -1 26 5 9 15 7 16 -37 12z"/> <path d="M1288 2683 c-9 -2 -18 -14 -20 -25 -2 -12 -9 -23 -17 -26 -10 -3 -12 2 -7 22 4 18 2 26 -7 26 -8 0 -13 -11 -12 -27 0 -23 5 -28 25 -28 18 0 26 6 28 23 2 12 8 22 13 22 5 0 7 -11 3 -25 -4 -15 -2 -25 5 -25 6 0 11 16 11 35 0 19 -1 34 -2 34 -2 -1 -11 -3 -20 -6z"/> <path d="M1365 2680 c-3 -5 -1 -10 4 -10 6 0 11 5 11 10 0 6 -2 10 -4 10 -3 0 -8 -4 -11 -10z"/> <path d="M1788 2684 c-5 -4 -8 -18 -8 -31 0 -14 -6 -23 -15 -23 -18 0 -20 17 -2 23 6 2 9 8 5 12 -4 4 -14 2 -22 -4 -10 -9 -16 -9 -21 -1 -5 8 -11 8 -21 -1 -19 -15 -18 -39 2 -39 8 0 12 5 9 10 -3 6 -2 10 4 10 5 0 13 -4 16 -10 10 -16 55 -12 55 5 0 8 4 15 10 15 5 0 7 -7 4 -15 -4 -9 0 -15 9 -15 10 0 13 7 10 20 -3 11 -9 20 -13 20 -5 0 -10 7 -12 16 -2 9 -6 12 -10 8z"/> <path d="M2085 2680 c-3 -5 -1 -10 4 -10 6 0 11 5 11 10 0 6 -2 10 -4 10 -3 0 -8 -4 -11 -10z"/> <path d="M2227 2683 c-9 -9 -9 -63 1 -63 4 0 8 16 9 35 3 36 1 40 -10 28z"/> <path d="M674 2664 c3 -9 6 -22 6 -30 0 -24 19 -15 35 16 9 17 11 30 5 30 -5 0 -10 -6 -10 -14 0 -8 -5 -18 -12 -22 -8 -5 -9 0 -6 14 4 16 2 22 -9 22 -10 0 -13 -6 -9 -16z"/> <path d="M738 2650 c-3 -16 -1 -30 4 -30 4 0 8 10 9 23 l0 22 11 -22 c6 -13 14 -23 18 -23 4 0 10 10 14 23 8 31 7 37 -4 37 -5 0 -7 -7 -4 -15 4 -8 2 -15 -4 -15 -5 0 -12 7 -16 15 -9 25 -23 17 -28 -15z"/> <path d="M813 2674 c3 -3 2 -17 -3 -30 -7 -18 -6 -24 4 -24 8 0 17 6 19 13 4 10 6 10 6 0 2 -27 18 -12 19 17 1 26 -3 30 -25 30 -15 0 -24 -3 -20 -6z m37 -8 c0 -3 -4 -8 -10 -11 -5 -3 -10 -1 -10 4 0 6 5 11 10 11 6 0 10 -2 10 -4z"/> <path d="M878 2650 c4 -31 16 -38 28 -19 3 6 1 15 -6 19 -7 4 -9 13 -6 19 4 6 1 11 -7 11 -9 0 -12 -9 -9 -30z"/> <path d="M910 2664 c0 -14 3 -14 15 -4 9 7 18 10 21 7 10 -10 -5 -39 -16 -32 -5 3 -10 1 -10 -4 0 -22 31 -10 40 15 14 35 14 34 -20 34 -21 0 -30 -5 -30 -16z"/> <path d="M978 2650 c-3 -22 -1 -30 10 -30 9 0 13 3 9 6 -3 3 -2 17 3 30 7 18 6 24 -4 24 -8 0 -16 -13 -18 -30z"/> <path d="M1020 2666 c0 -8 -3 -21 -6 -30 -5 -12 0 -16 20 -16 14 0 26 4 26 10 0 5 -7 7 -15 4 -8 -4 -15 -2 -15 4 0 5 7 12 15 16 22 8 18 26 -5 26 -11 0 -20 -6 -20 -14z"/> <path d="M1326 2665 c-10 -26 -7 -45 7 -45 7 0 12 11 12 25 -2 31 -11 41 -19 20z"/> <path d="M1536 2673 c-3 -3 -6 -16 -6 -29 0 -19 5 -22 38 -22 20 0 31 3 25 5 -7 3 -13 9 -13 14 0 6 4 8 9 4 5 -3 12 -1 15 4 13 20 -14 21 -31 1 -22 -25 -37 -26 -23 -1 10 19 0 37 -14 24z"/> <path d="M1640 2669 c0 -5 5 -7 11 -3 8 5 10 -1 7 -20 -4 -18 -1 -26 9 -26 8 0 12 4 9 9 -8 13 4 42 15 35 5 -3 9 0 9 5 0 6 -13 11 -30 11 -16 0 -30 -5 -30 -11z"/> <path d="M1870 2665 c-7 -8 -10 -22 -6 -30 6 -16 46 -21 46 -5 0 5 -7 7 -16 3 -12 -4 -15 -1 -12 13 2 10 8 19 15 19 6 0 15 3 19 8 4 4 -2 7 -13 7 -11 0 -26 -7 -33 -15z"/> <path d="M1160 2660 c-20 -12 -5 -24 16 -12 9 5 12 12 7 15 -5 3 -15 2 -23 -3z"/> <path d="M1399 2665 c0 0 -2 -10 -5 -22 -5 -27 12 -31 19 -5 4 15 5 14 6 -2 1 -20 1 -20 17 0 13 16 15 16 10 2 -3 -10 -1 -18 4 -18 6 0 10 10 10 23 0 18 -6 22 -30 22 -16 1 -30 1 -31 0z"/> <path d="M1481 2657 c-19 -19 -12 -37 14 -37 18 0 25 5 25 19 0 23 -23 34 -39 18z"/> <path d="M1932 2658 c-20 -20 -14 -38 12 -38 19 0 23 4 19 20 -7 26 -17 32 -31 18z m18 -12 c0 -3 -4 -8 -10 -11 -5 -3 -10 -1 -10 4 0 6 5 11 10 11 6 0 10 -2 10 -4z"/> <path d="M2018 2662 c-32 -3 -38 -7 -38 -25 1 -20 2 -20 11 -4 13 22 29 22 29 0 0 -15 2 -14 15 3 13 17 14 17 15 2 0 -10 4 -18 8 -18 9 0 10 37 1 42 -2 2 -21 2 -41 0z"/> <path d="M2118 2665 c-8 -8 2 -45 13 -45 10 0 10 8 0 33 -3 10 -9 15 -13 12z"/> <path d="M2175 2660 c-3 -5 -12 -7 -20 -3 -8 3 -15 0 -15 -7 0 -6 5 -8 10 -5 6 3 10 -1 10 -9 0 -10 9 -16 23 -16 16 0 23 6 23 20 0 21 -22 35 -31 20z m15 -20 c0 -5 -4 -10 -10 -10 -5 0 -10 5 -10 10 0 6 5 10 10 10 6 0 10 -4 10 -10z"/> <path d="M1360 2640 c0 -11 5 -20 10 -20 6 0 10 9 10 20 0 11 -4 20 -10 20 -5 0 -10 -9 -10 -20z"/> <path d="M2080 2640 c0 -11 5 -20 10 -20 6 0 10 9 10 20 0 11 -4 20 -10 20 -5 0 -10 -9 -10 -20z"/> <path d="M1160 2630 c-13 -8 -12 -10 3 -10 9 0 17 5 17 10 0 12 -1 12 -20 0z"/> <path d="M1558 2541 c15 -10 49 -74 86 -161 35 -79 69 -146 76 -148 9 -3 11 1 7 11 -5 15 92 255 115 284 6 7 15 10 21 6 6 -4 7 -1 2 7 -6 10 -4 12 9 7 10 -4 15 -3 11 3 -3 6 -26 10 -51 10 -39 0 -43 -2 -33 -17 8 -14 0 -43 -39 -136 l-48 -117 -47 118 c-51 127 -55 147 -31 138 8 -3 13 -2 10 2 -3 5 -29 9 -58 10 -53 1 -53 1 -30 -17z"/> <path d="M442 2498 c-1 -20 3 -40 8 -43 6 -3 7 1 4 9 -3 9 -1 16 5 16 6 0 10 6 9 13 -2 8 13 13 45 15 l47 3 0 -135 c0 -124 -2 -136 -20 -149 -18 -13 -15 -14 37 -16 32 -1 67 -4 78 -7 16 -4 14 0 -7 16 l-28 22 0 134 0 134 34 0 c47 0 66 -9 66 -30 0 -10 7 -20 15 -24 15 -5 15 4 -1 64 -3 12 -28 15 -147 15 l-144 0 -1 -37z"/> <path d="M924 2438 c-5 -8 -17 -17 -26 -21 -15 -5 -18 -19 -18 -72 0 -55 3 -65 18 -65 9 0 23 -9 30 -20 16 -27 35 -26 27 1 -6 19 -4 21 17 17 20 -4 23 -1 22 21 -1 27 -24 43 -24 17 0 -11 -9 -16 -26 -16 -21 0 -25 4 -21 20 3 11 -2 27 -10 35 -8 9 -12 22 -9 30 7 19 55 20 62 1 3 -8 12 -17 20 -20 21 -8 11 36 -12 48 -10 6 -24 17 -30 25 -10 12 -12 12 -20 -1z"/> <path d="M1470 2405 c-7 -8 -21 -15 -31 -15 -24 0 -47 -46 -31 -62 8 -8 8 -15 -1 -28 -18 -30 8 -51 59 -49 47 3 67 -7 44 -21 -9 -6 -19 -5 -24 0 -12 12 -26 13 -26 1 0 -19 45 -20 65 -2 11 11 29 21 40 23 15 3 20 11 20 38 0 19 4 40 8 47 8 13 -25 53 -44 53 -6 0 -17 7 -25 15 -9 8 -21 15 -28 15 -8 0 -19 -7 -26 -15z m31 -23 c-28 -4 -40 6 -21 18 9 6 20 4 29 -3 12 -10 11 -13 -8 -15z m-60 -48 c-7 -27 -7 -41 1 -51 13 -17 4 -28 -16 -20 -13 5 -14 12 -6 33 8 19 7 31 -2 41 -10 12 -9 18 7 29 25 19 28 13 16 -32z m135 12 c1 -9 -2 -16 -7 -16 -5 0 -9 -7 -9 -15 0 -8 5 -15 10 -15 11 0 14 -29 3 -31 -5 -1 -32 -2 -61 -3 -35 -1 -47 1 -36 7 8 5 24 7 33 4 15 -4 18 2 18 37 0 40 -1 42 -27 38 -15 -2 -30 0 -33 5 -4 6 10 9 31 8 36 -3 37 -4 38 -44 0 -22 4 -44 7 -48 11 -10 12 38 1 85 -4 20 -2 22 12 14 10 -5 19 -17 20 -26z m-75 -6 c10 0 19 -4 19 -10 0 -15 -48 -12 -53 3 -2 6 -4 -1 -4 -17 0 -15 2 -24 6 -20 9 13 51 17 51 6 0 -10 -57 -22 -65 -14 -3 3 -5 19 -5 35 0 22 4 28 16 23 9 -3 24 -6 35 -6z"/> <path d="M760 2390 c-25 -25 -27 -89 -2 -120 12 -15 31 -22 65 -24 26 -2 47 -1 47 3 -1 17 -18 27 -49 27 -24 -1 -38 5 -49 23 l-16 24 52 -5 c42 -4 50 -3 41 8 -6 7 -29 14 -51 16 l-40 3 20 25 c19 23 23 24 53 13 37 -14 47 -10 29 12 -18 22 -76 19 -100 -5z"/> <path d="M1030 2330 c0 -44 2 -80 4 -80 2 0 12 -3 20 -6 14 -5 15 -2 6 21 -18 48 -14 55 35 55 44 0 45 0 45 -34 0 -28 13 -46 33 -46 1 0 1 38 -1 85 -3 65 -7 85 -18 85 -9 0 -14 -11 -14 -35 0 -35 0 -35 -46 -35 -42 0 -46 2 -41 21 6 24 -1 49 -14 49 -5 0 -9 -36 -9 -80z"/> <path d="M1210 2330 c0 -44 2 -80 4 -80 2 0 11 -2 18 -5 12 -5 14 6 10 52 -5 72 11 99 51 89 27 -6 27 -7 27 -104 0 -89 2 -98 21 -111 20 -12 21 -11 16 11 -4 12 -7 62 -7 110 0 65 -4 90 -16 102 -18 19 -65 21 -82 4 -9 -9 -12 -9 -12 0 0 7 -7 12 -15 12 -12 0 -15 -16 -15 -80z"/> <path d="M1820 2347 c0 -71 20 -112 51 -104 11 3 19 1 19 -5 0 -5 4 -7 10 -3 15 9 0 34 -23 37 -20 3 -22 10 -25 71 -2 51 -6 67 -17 67 -12 0 -15 -15 -15 -63z"/> <path d="M1932 2398 c-26 -26 -14 -55 33 -77 33 -15 43 -25 38 -37 -5 -13 -16 -15 -49 -11 -32 3 -41 1 -37 -9 3 -7 12 -15 21 -18 25 -7 82 0 94 12 17 17 -13 65 -52 83 -19 9 -35 23 -35 30 0 18 42 24 61 8 17 -14 29 -6 21 16 -8 18 -77 21 -95 3z"/> <path d="M2053 2398 c2 -7 14 -12 26 -11 20 3 21 -2 21 -66 0 -54 4 -70 16 -75 9 -3 16 -6 17 -6 1 0 0 32 -3 71 -3 39 -4 72 -2 74 2 2 15 -1 29 -6 30 -11 36 -8 27 15 -5 12 -20 16 -71 16 -47 0 -63 -3 -60 -12z"/> <path d="M2220 2390 c-26 -26 -27 -89 -2 -121 13 -15 30 -23 55 -23 19 -1 35 1 35 4 -2 18 5 18 24 0 35 -32 56 -19 22 14 -12 12 -15 32 -12 81 2 47 0 65 -9 65 -7 0 -13 -5 -13 -12 0 -9 -3 -9 -12 0 -19 19 -66 14 -88 -8z m78 -12 c7 -7 12 -28 12 -48 0 -41 -14 -60 -46 -60 -25 0 -34 17 -34 64 0 35 15 56 40 56 9 0 21 -5 28 -12z"/> <path d="M1545 2104 c0 -37 4 -54 13 -54 6 0 12 8 12 17 0 15 2 14 14 -3 19 -25 32 -11 14 15 -8 12 -18 18 -21 14 -4 -3 -7 7 -7 24 0 17 -6 33 -12 36 -10 3 -13 -10 -13 -49z"/> <path d="M1476 2112 c-4 -6 3 -8 16 -4 17 4 20 2 15 -12 -5 -12 -3 -16 5 -14 7 3 13 11 13 19 0 16 -40 25 -49 11z"/> <path d="M1588 2113 c7 -3 16 -2 19 1 4 3 -2 6 -13 5 -11 0 -14 -3 -6 -6z"/> <path d="M1620 2110 c0 -5 8 -6 17 -3 13 5 15 2 10 -11 -5 -12 -3 -16 5 -14 7 3 14 12 16 21 3 12 -4 17 -22 17 -14 0 -26 -4 -26 -10z"/> <path d="M1690 2110 c0 -5 9 -10 20 -10 11 0 20 5 20 10 0 6 -9 10 -20 10 -11 0 -20 -4 -20 -10z"/> <path d="M460 2090 c0 -7 163 -10 470 -10 307 0 470 3 470 10 0 7 -163 10 -470 10 -307 0 -470 -3 -470 -10z"/> <path d="M1968 2093 c101 -2 263 -2 360 0 97 1 15 2 -183 2 -198 0 -278 -1 -177 -2z"/> <path d="M1705 2077 c17 -13 17 -15 -6 -30 -16 -12 -19 -17 -8 -17 25 0 51 34 37 48 -7 7 -19 12 -27 12 -11 0 -11 -3 4 -13z"/> <path d="M1480 2060 c0 -5 11 -10 25 -10 14 0 25 5 25 10 0 6 -11 10 -25 10 -14 0 -25 -4 -25 -10z"/> <path d="M1625 2060 c-4 -6 7 -10 24 -10 17 0 31 5 31 10 0 6 -11 10 -24 10 -14 0 -28 -4 -31 -10z"/> </g> </svg> 