<svg width="314" height="790" viewBox="0 0 314 790" fill="none" xmlns="http://www.w3.org/2000/svg">
<mask id="path-1-inside-1_5905_20779" fill="white">
<path fill-rule="evenodd" clip-rule="evenodd" d="M0.986328 788C0.986328 789.105 1.88176 790 2.98633 790H311.986C313.091 790 313.986 789.105 313.986 788V562.998L280.811 535.198L313.986 507.398V2C313.986 0.895432 313.091 0 311.986 0H2.98633C1.88177 0 0.986328 0.895431 0.986328 2V507.45L33.4879 534.196L0.986328 561.926V788Z"/>
</mask>
<path fill-rule="evenodd" clip-rule="evenodd" d="M0.986328 788C0.986328 789.105 1.88176 790 2.98633 790H311.986C313.091 790 313.986 789.105 313.986 788V562.998L280.811 535.198L313.986 507.398V2C313.986 0.895432 313.091 0 311.986 0H2.98633C1.88177 0 0.986328 0.895431 0.986328 2V507.45L33.4879 534.196L0.986328 561.926V788Z" fill="black"/>
<path d="M313.986 562.998H315.986V562.065L315.271 561.465L313.986 562.998ZM280.811 535.198L279.526 533.665L277.697 535.198L279.526 536.731L280.811 535.198ZM313.986 507.398L315.271 508.931L315.986 508.331V507.398H313.986ZM0.986328 507.45H-1.01367V508.394L-0.284529 508.994L0.986328 507.45ZM33.4879 534.196L34.786 535.718L36.6017 534.169L34.7587 532.652L33.4879 534.196ZM0.986328 561.926L-0.311784 560.405L-1.01367 561.004V561.926H0.986328ZM2.98633 788H-1.01367C-1.01367 790.209 0.777179 792 2.98633 792V788ZM311.986 788H2.98633V792H311.986V788ZM311.986 788V792C314.195 792 315.986 790.209 315.986 788H311.986ZM311.986 562.998V788H315.986V562.998H311.986ZM315.271 561.465L282.095 533.665L279.526 536.731L312.702 564.531L315.271 561.465ZM282.095 536.731L315.271 508.931L312.702 505.865L279.526 533.665L282.095 536.731ZM311.986 2V507.398H315.986V2H311.986ZM311.986 2V2H315.986C315.986 -0.209126 314.196 -2 311.986 -2V2ZM2.98633 2H311.986V-2H2.98633V2ZM2.98633 2H2.98633V-2C0.777204 -2 -1.01367 -0.209148 -1.01367 2H2.98633ZM2.98633 507.45V2H-1.01367V507.45H2.98633ZM34.7587 532.652L2.25719 505.906L-0.284529 508.994L32.217 535.741L34.7587 532.652ZM2.28444 563.448L34.786 535.718L32.1897 532.675L-0.311784 560.405L2.28444 563.448ZM2.98633 788V561.926H-1.01367V788H2.98633Z" fill="white" mask="url(#path-1-inside-1_5905_20779)"/>
<path fill-rule="evenodd" clip-rule="evenodd" d="M35 534.3C35 533.361 35.7611 532.6 36.7 532.6L41.0359 532.6C41.9748 532.6 42.7359 533.361 42.7359 534.3C42.7359 535.238 41.9748 536 41.0359 536L36.7 536C35.7611 536 35 535.238 35 534.3ZM50.9641 534.3C50.9641 533.361 51.7252 532.6 52.6641 532.6L61.3359 532.6C62.2748 532.6 63.0359 533.361 63.0359 534.3C63.0359 535.238 62.2748 536 61.3359 536L52.6641 536C51.7252 536 50.9641 535.238 50.9641 534.3ZM71.2641 534.3C71.2641 533.361 72.0252 532.6 72.9641 532.6L81.6359 532.6C82.5748 532.6 83.3359 533.361 83.3359 534.3C83.3359 535.238 82.5748 536 81.6359 536L72.9641 536C72.0252 536 71.2641 535.238 71.2641 534.3ZM91.5641 534.3C91.5641 533.361 92.3252 532.6 93.2641 532.6L101.936 532.6C102.875 532.6 103.636 533.361 103.636 534.3C103.636 535.238 102.875 536 101.936 536L93.2641 536C92.3252 536 91.5641 535.238 91.5641 534.3ZM111.864 534.3C111.864 533.361 112.625 532.6 113.564 532.6L122.236 532.6C123.175 532.6 123.936 533.361 123.936 534.3C123.936 535.239 123.175 536 122.236 536L113.564 536C112.625 536 111.864 535.239 111.864 534.3ZM132.164 534.3C132.164 533.361 132.925 532.6 133.864 532.6L142.536 532.6C143.475 532.6 144.236 533.361 144.236 534.3C144.236 535.239 143.475 536 142.536 536L133.864 536C132.925 536 132.164 535.239 132.164 534.3ZM152.464 534.3C152.464 533.361 153.225 532.6 154.164 532.6L162.836 532.6C163.775 532.6 164.536 533.361 164.536 534.3C164.536 535.239 163.775 536 162.836 536L154.164 536C153.225 536 152.464 535.239 152.464 534.3ZM172.764 534.3C172.764 533.361 173.525 532.6 174.464 532.6L183.136 532.6C184.075 532.6 184.836 533.361 184.836 534.3C184.836 535.239 184.075 536 183.136 536L174.464 536C173.525 536 172.764 535.239 172.764 534.3ZM193.064 534.3C193.064 533.361 193.825 532.6 194.764 532.6L203.436 532.6C204.375 532.6 205.136 533.361 205.136 534.3C205.136 535.239 204.375 536 203.436 536L194.764 536C193.825 536 193.064 535.239 193.064 534.3ZM213.364 534.3C213.364 533.361 214.125 532.6 215.064 532.6L223.736 532.6C224.675 532.6 225.436 533.361 225.436 534.3C225.436 535.239 224.675 536 223.736 536L215.064 536C214.125 536 213.364 535.239 213.364 534.3ZM233.664 534.3C233.664 533.361 234.425 532.6 235.364 532.6L244.036 532.6C244.975 532.6 245.736 533.361 245.736 534.3C245.736 535.239 244.975 536 244.036 536L235.364 536C234.425 536 233.664 535.239 233.664 534.3ZM253.964 534.3C253.964 533.361 254.725 532.6 255.664 532.6L264.336 532.6C265.275 532.6 266.036 533.361 266.036 534.3C266.036 535.239 265.275 536 264.336 536L255.664 536C254.725 536 253.964 535.239 253.964 534.3ZM274.264 534.3C274.264 533.361 275.025 532.6 275.964 532.6L280.3 532.6C281.239 532.6 282 533.361 282 534.3C282 535.239 281.239 536 280.3 536L275.964 536C275.025 536 274.264 535.239 274.264 534.3Z" fill="white"/>
</svg>
